<svg width="214" height="243" viewBox="0 0 214 243" fill="none" xmlns="http://www.w3.org/2000/svg">
<path d="M65.3438 223.094C64.8021 223.052 64.2604 223.031 63.7188 223.031C63.1771 223.031 62.6354 223.031 62.0938 223.031C59.0938 223.031 56.1354 223.167 53.2188 223.438C50.3229 223.688 47.4479 224.062 44.5938 224.562H44.2812C43.8021 224.562 43.4167 224.396 43.125 224.062C42.8333 223.75 42.6875 223.385 42.6875 222.969C42.6875 222.594 42.8021 222.25 43.0312 221.938C43.2812 221.625 43.6146 221.438 44.0312 221.375C44.8021 221.208 45.5833 221.062 46.375 220.938C47.1667 220.812 47.9896 220.698 48.8438 220.594C48.8021 219.969 48.7292 219.031 48.625 217.781C48.5417 216.531 48.4167 215.052 48.25 213.344C48.1042 211.635 47.9167 209.74 47.6875 207.656C47.4583 205.573 47.1875 203.375 46.875 201.062C46.5625 198.75 46.1979 196.375 45.7812 193.938C45.3646 191.479 44.8854 189.042 44.3438 186.625C43.7812 188 43.1562 189.573 42.4688 191.344C41.8021 193.115 41.1042 194.99 40.375 196.969C39.6667 198.927 38.9479 200.938 38.2188 203C37.4896 205.062 36.7812 207.073 36.0938 209.031C35.4271 210.99 34.7917 212.833 34.1875 214.562C33.6042 216.292 33.0938 217.812 32.6562 219.125C32.2188 220.438 31.8646 221.49 31.5938 222.281C31.3438 223.052 31.2188 223.458 31.2188 223.5C31.1146 223.854 30.9167 224.115 30.625 224.281C30.3333 224.469 30.0208 224.562 29.6875 224.562C29.375 224.562 29.0833 224.49 28.8125 224.344C28.5417 224.198 28.3438 224 28.2188 223.75L13.0625 194.125C12.6042 197.583 12.1875 200.927 11.8125 204.156C11.6458 205.531 11.4792 206.958 11.3125 208.438C11.1667 209.896 11.0208 211.333 10.875 212.75C10.7292 214.146 10.6042 215.479 10.5 216.75C10.4167 218.021 10.3542 219.156 10.3125 220.156C11.2083 220.198 12.1146 220.281 13.0312 220.406C13.9479 220.51 14.8958 220.667 15.875 220.875C16.25 220.938 16.5521 221.125 16.7812 221.438C17.0312 221.729 17.1562 222.073 17.1562 222.469C17.1562 223.01 16.9688 223.417 16.5938 223.688C16.2188 223.938 15.875 224.062 15.5625 224.062H15.2188C14.0104 223.833 12.8125 223.667 11.625 223.562C10.4583 223.438 9.29167 223.375 8.125 223.375C7.22917 223.375 6.34375 223.406 5.46875 223.469C4.61458 223.531 3.75 223.646 2.875 223.812H2.625C2.14583 223.812 1.75 223.646 1.4375 223.312C1.125 222.979 0.96875 222.594 0.96875 222.156C0.96875 221.76 1.09375 221.417 1.34375 221.125C1.59375 220.812 1.91667 220.615 2.3125 220.531C3.08333 220.406 3.85417 220.312 4.625 220.25C5.41667 220.188 6.19792 220.135 6.96875 220.094C7.01042 219.052 7.09375 217.719 7.21875 216.094C7.36458 214.469 7.53125 212.646 7.71875 210.625C7.92708 208.604 8.17708 206.427 8.46875 204.094C8.76042 201.74 9.09375 199.312 9.46875 196.812C9.84375 194.312 10.2604 191.781 10.7188 189.219C11.1979 186.656 11.7188 184.146 12.2812 181.688C11.1146 181.646 9.95833 181.552 8.8125 181.406C7.6875 181.24 6.5625 181 5.4375 180.688C5.08333 180.583 4.79167 180.385 4.5625 180.094C4.33333 179.802 4.21875 179.479 4.21875 179.125C4.21875 178.646 4.38542 178.25 4.71875 177.938C5.07292 177.625 5.45833 177.469 5.875 177.469C5.95833 177.469 6.03125 177.469 6.09375 177.469C6.15625 177.469 6.23958 177.49 6.34375 177.531C7.46875 177.823 8.59375 178.052 9.71875 178.219C10.8438 178.365 12 178.438 13.1875 178.438C13.6667 178.438 14.0729 178.427 14.4062 178.406C14.7604 178.385 15.1042 178.375 15.4375 178.375C16.0417 178.375 16.5312 178.646 16.9062 179.188L32.8438 208.5C33.4479 206.729 34.0729 204.906 34.7188 203.031C35.3854 201.135 36.0521 199.271 36.7188 197.438C37.4062 195.583 38.0729 193.792 38.7188 192.062C39.3646 190.333 39.9792 188.74 40.5625 187.281C41.1667 185.823 41.7083 184.542 42.1875 183.438C42.6875 182.333 43.1146 181.479 43.4688 180.875C43.7812 180.354 44.25 180.094 44.875 180.094C46.75 179.927 48.4792 179.781 50.0625 179.656C51.6458 179.531 53.0521 179.427 54.2812 179.344C55.5104 179.24 56.5312 179.156 57.3438 179.094C58.1771 179.031 58.7708 178.979 59.125 178.938C59.1875 178.938 59.2396 178.927 59.2812 178.906C59.3229 178.885 59.3646 178.875 59.4062 178.875C59.8854 178.875 60.2812 179.052 60.5938 179.406C60.9062 179.74 61.0625 180.115 61.0625 180.531C61.0625 180.948 60.9271 181.312 60.6562 181.625C60.4062 181.917 60.0729 182.094 59.6562 182.156C59.3229 182.219 58.8021 182.302 58.0938 182.406C57.3854 182.49 56.5 182.594 55.4375 182.719C55.5625 183.594 55.75 184.823 56 186.406C56.2708 187.969 56.5521 189.771 56.8438 191.812C57.1562 193.833 57.4792 196.031 57.8125 198.406C58.1458 200.781 58.4688 203.198 58.7812 205.656C59.0938 208.115 59.3646 210.552 59.5938 212.969C59.8438 215.385 60.0312 217.656 60.1562 219.781H62.0938C62.6354 219.781 63.1875 219.781 63.75 219.781C64.3125 219.781 64.8646 219.802 65.4062 219.844C65.8646 219.844 66.2396 220 66.5312 220.312C66.8438 220.604 67 220.979 67 221.438C67 221.917 66.8333 222.312 66.5 222.625C66.1875 222.938 65.8021 223.094 65.3438 223.094ZM105.281 192.5C105.281 192.917 105.135 193.281 104.844 193.594C104.573 193.906 104.229 194.083 103.812 194.125C103.417 194.188 103.021 194.24 102.625 194.281C102.25 194.302 101.854 194.333 101.438 194.375C101.292 194.958 101.083 195.781 100.812 196.844C100.562 197.885 100.26 199.083 99.9062 200.438C99.5521 201.792 99.1667 203.26 98.75 204.844C98.3542 206.427 97.9375 208.042 97.5 209.688C97.0625 211.333 96.6146 212.969 96.1562 214.594C95.6979 216.219 95.25 217.76 94.8125 219.219C94.3958 220.656 93.9896 221.969 93.5938 223.156C93.2188 224.323 92.875 225.292 92.5625 226.062C91.7083 228.104 90.6875 230.094 89.5 232.031C88.3333 233.99 86.9792 235.729 85.4375 237.25C83.9167 238.771 82.2083 239.99 80.3125 240.906C78.4167 241.844 76.3333 242.312 74.0625 242.312C72.6458 242.312 71.2812 242.115 69.9688 241.719C68.6562 241.344 67.5 240.771 66.5 240C65.5 239.229 64.6979 238.281 64.0938 237.156C63.4896 236.052 63.1875 234.76 63.1875 233.281C63.1875 232.344 63.3229 231.406 63.5938 230.469C63.8438 229.552 64.2292 228.729 64.75 228C65.25 227.292 65.875 226.708 66.625 226.25C67.375 225.812 68.25 225.594 69.25 225.594C70.0208 225.594 70.7396 225.74 71.4062 226.031C72.0938 226.323 72.6875 226.719 73.1875 227.219C73.6875 227.719 74.0833 228.302 74.375 228.969C74.6667 229.656 74.8125 230.385 74.8125 231.156C74.8125 231.927 74.6667 232.646 74.375 233.312C74.0833 234 73.6875 234.594 73.1875 235.094C72.6875 235.615 72.0938 236.021 71.4062 236.312C70.7396 236.604 70.0208 236.75 69.25 236.75C68.8958 236.75 68.5625 236.719 68.25 236.656C67.9375 236.594 67.6354 236.51 67.3438 236.406C67.8229 237.01 68.375 237.49 69 237.844C69.625 238.219 70.3021 238.406 71.0312 238.406C71.9479 238.406 72.8229 238.125 73.6562 237.562C74.4896 237.021 75.2708 236.312 76 235.438C76.75 234.562 77.4375 233.583 78.0625 232.5C78.6875 231.417 79.25 230.333 79.75 229.25C80.2708 228.167 80.7188 227.146 81.0938 226.188C81.4688 225.229 81.7708 224.438 82 223.812C82.1667 223.354 82.3229 222.875 82.4688 222.375C82.6354 221.854 82.8125 221.312 83 220.75C80.7083 217.625 78.875 214.708 77.5 212C76.125 209.292 75.0521 206.844 74.2812 204.656C73.5312 202.469 73.0208 200.573 72.75 198.969C72.5 197.344 72.3542 196.062 72.3125 195.125C71.5208 195.125 70.7188 195.115 69.9062 195.094C69.1146 195.052 68.3229 194.979 67.5312 194.875C67.1146 194.833 66.7604 194.667 66.4688 194.375C66.1979 194.062 66.0625 193.698 66.0625 193.281C66.0625 192.823 66.2292 192.438 66.5625 192.125C66.9167 191.792 67.3021 191.625 67.7188 191.625H67.9062C68.6354 191.729 69.375 191.802 70.125 191.844C70.8958 191.865 71.6771 191.875 72.4688 191.875C73.6771 191.875 74.8958 191.833 76.125 191.75C77.375 191.646 78.6458 191.49 79.9375 191.281C80.0208 191.24 80.1042 191.219 80.1875 191.219C80.6667 191.219 81.0625 191.396 81.375 191.75C81.7083 192.104 81.875 192.49 81.875 192.906C81.875 193.281 81.7396 193.625 81.4688 193.938C81.2188 194.25 80.8854 194.438 80.4688 194.5C79.6146 194.625 78.7812 194.74 77.9688 194.844C77.1771 194.927 76.3854 195 75.5938 195.062C75.6146 195.812 75.7292 196.865 75.9375 198.219C76.1667 199.573 76.5833 201.177 77.1875 203.031C77.8125 204.885 78.6771 206.969 79.7812 209.281C80.9062 211.594 82.3854 214.094 84.2188 216.781C84.8021 214.781 85.3854 212.688 85.9688 210.5C86.5729 208.292 87.1354 206.167 87.6562 204.125C88.1979 202.083 88.6771 200.208 89.0938 198.5C89.5312 196.792 89.875 195.417 90.125 194.375C89.7083 194.333 89.2708 194.302 88.8125 194.281C88.375 194.24 87.9375 194.188 87.5 194.125C87.0833 194.083 86.7292 193.906 86.4375 193.594C86.1667 193.281 86.0312 192.917 86.0312 192.5C86.0312 192 86.2083 191.604 86.5625 191.312C86.9167 191 87.2917 190.844 87.6875 190.844H87.875C89.1667 191.01 90.4479 191.125 91.7188 191.188C93.0104 191.25 94.3125 191.281 95.625 191.281C96.9167 191.281 98.2083 191.25 99.5 191.188C100.812 191.125 102.125 191.01 103.438 190.844H103.625C104.104 190.844 104.5 191.021 104.812 191.375C105.125 191.708 105.281 192.083 105.281 192.5ZM145.75 194.75C145.75 193.062 145.49 191.573 144.969 190.281C144.469 188.969 143.781 187.833 142.906 186.875C142.052 185.896 141.031 185.073 139.844 184.406C138.677 183.719 137.427 183.167 136.094 182.75C134.76 182.312 133.375 181.99 131.938 181.781C130.5 181.573 129.094 181.438 127.719 181.375H125.531L124.844 207.75C125.49 207.917 126.188 208.042 126.938 208.125C127.688 208.208 128.479 208.25 129.312 208.25C131.5 208.25 133.583 207.969 135.562 207.406C137.562 206.823 139.312 205.969 140.812 204.844C142.333 203.719 143.531 202.312 144.406 200.625C145.302 198.938 145.75 196.979 145.75 194.75ZM129.312 211.531C128.479 211.531 127.677 211.5 126.906 211.438C126.156 211.354 125.448 211.229 124.781 211.062L124.531 220.938C125.323 221 126.125 221.062 126.938 221.125C127.771 221.188 128.604 221.25 129.438 221.312C129.854 221.375 130.198 221.562 130.469 221.875C130.76 222.188 130.906 222.552 130.906 222.969C130.906 223.448 130.729 223.833 130.375 224.125C130.021 224.417 129.646 224.562 129.25 224.562H129.125C127.458 224.396 125.792 224.271 124.125 224.188C122.479 224.104 120.823 224.062 119.156 224.062C117.51 224.062 115.875 224.104 114.25 224.188C112.646 224.271 111.031 224.396 109.406 224.562H109.281C108.823 224.562 108.427 224.396 108.094 224.062C107.781 223.75 107.625 223.385 107.625 222.969C107.625 222.552 107.76 222.188 108.031 221.875C108.323 221.562 108.677 221.375 109.094 221.312C109.865 221.25 110.635 221.188 111.406 221.125C112.198 221.062 112.979 221 113.75 220.938L114.469 182.156C112.927 182.406 111.781 182.656 111.031 182.906C110.302 183.156 109.917 183.281 109.875 183.281C109.625 183.385 109.427 183.438 109.281 183.438C108.823 183.438 108.427 183.26 108.094 182.906C107.781 182.552 107.625 182.167 107.625 181.75C107.625 181.438 107.708 181.135 107.875 180.844C108.062 180.552 108.323 180.344 108.656 180.219C108.719 180.198 109.104 180.083 109.812 179.875C110.521 179.646 111.542 179.396 112.875 179.125C114.229 178.854 115.906 178.615 117.906 178.406C119.906 178.177 122.24 178.062 124.906 178.062C125.365 178.062 125.833 178.062 126.312 178.062C126.812 178.062 127.302 178.083 127.781 178.125C129.594 178.188 131.375 178.365 133.125 178.656C134.875 178.948 136.542 179.396 138.125 180C139.708 180.583 141.156 181.312 142.469 182.188C143.802 183.062 144.958 184.115 145.938 185.344C146.917 186.552 147.677 187.938 148.219 189.5C148.76 191.062 149.031 192.812 149.031 194.75C149.031 196.583 148.76 198.271 148.219 199.812C147.677 201.333 146.927 202.719 145.969 203.969C145.031 205.198 143.927 206.292 142.656 207.25C141.385 208.188 140.01 208.979 138.531 209.625C137.073 210.25 135.552 210.729 133.969 211.062C132.406 211.375 130.854 211.531 129.312 211.531ZM180.781 207.5V206.969C180.781 205.406 180.615 203.958 180.281 202.625C179.948 201.292 179.417 200.115 178.688 199.094C177.979 198.052 177.062 197.198 175.938 196.531C174.812 195.865 173.458 195.417 171.875 195.188C170.771 195.312 169.812 195.615 169 196.094C168.188 196.573 167.49 197.167 166.906 197.875C166.344 198.562 165.875 199.344 165.5 200.219C165.125 201.094 164.823 202 164.594 202.938C164.385 203.854 164.229 204.781 164.125 205.719C164.021 206.635 163.958 207.5 163.938 208.312C164.271 208.417 164.688 208.531 165.188 208.656C165.708 208.781 166.292 208.906 166.938 209.031C167.583 209.135 168.281 209.229 169.031 209.312C169.802 209.375 170.604 209.406 171.438 209.406C173.208 209.406 174.865 209.24 176.406 208.906C177.969 208.573 179.427 208.104 180.781 207.5ZM183.969 208.719C183.906 209.26 183.615 209.729 183.094 210.125C182.573 210.521 181.917 210.875 181.125 211.188C180.333 211.479 179.458 211.729 178.5 211.938C177.562 212.125 176.635 212.281 175.719 212.406C174.802 212.531 173.958 212.625 173.188 212.688C172.417 212.729 171.812 212.75 171.375 212.75C169.854 212.75 168.448 212.646 167.156 212.438C165.885 212.229 164.833 212.01 164 211.781C164.125 213.073 164.365 214.344 164.719 215.594C165.073 216.844 165.583 217.969 166.25 218.969C166.917 219.948 167.75 220.75 168.75 221.375C169.75 221.979 170.958 222.281 172.375 222.281C172.896 222.281 173.49 222.219 174.156 222.094C174.823 221.948 175.479 221.75 176.125 221.5C176.771 221.229 177.365 220.917 177.906 220.562C178.448 220.188 178.875 219.771 179.188 219.312C179.542 218.896 179.969 218.688 180.469 218.688C180.906 218.688 181.292 218.865 181.625 219.219C181.958 219.552 182.125 219.927 182.125 220.344C182.125 220.781 181.99 221.125 181.719 221.375C181.219 222.146 180.521 222.802 179.625 223.344C178.729 223.885 177.76 224.323 176.719 224.656C175.677 225.01 174.625 225.26 173.562 225.406C172.5 225.573 171.531 225.656 170.656 225.656C168.156 225.656 165.833 225.208 163.688 224.312C161.542 223.438 159.677 222.229 158.094 220.688C156.51 219.146 155.26 217.333 154.344 215.25C153.448 213.167 153 210.917 153 208.5C153 205.854 153.396 203.5 154.188 201.438C154.979 199.354 156.104 197.604 157.562 196.188C159.021 194.75 160.792 193.667 162.875 192.938C164.958 192.188 167.302 191.812 169.906 191.812C172.365 191.917 174.479 192.333 176.25 193.062C178.042 193.792 179.51 194.802 180.656 196.094C181.802 197.385 182.646 198.948 183.188 200.781C183.75 202.594 184.031 204.635 184.031 206.906C184.031 207.427 184.021 207.844 184 208.156C183.979 208.448 183.969 208.635 183.969 208.719ZM213.906 193.594C213.906 194.01 213.76 194.385 213.469 194.719C213.198 195.031 212.854 195.208 212.438 195.25C211.083 195.354 209.74 195.448 208.406 195.531C207.073 195.615 205.729 195.677 204.375 195.719V217.594C204.375 218.01 204.458 218.396 204.625 218.75C204.812 219.104 205.042 219.406 205.312 219.656C205.604 219.906 205.927 220.104 206.281 220.25C206.635 220.396 207 220.469 207.375 220.469C207.938 220.469 208.396 220.323 208.75 220.031C209.125 219.719 209.438 219.344 209.688 218.906C209.938 218.448 210.135 217.969 210.281 217.469C210.448 216.969 210.583 216.521 210.688 216.125C210.75 215.75 210.938 215.448 211.25 215.219C211.562 214.969 211.906 214.844 212.281 214.844C212.76 214.844 213.146 215.031 213.438 215.406C213.75 215.76 213.906 216.125 213.906 216.5V216.844C213.302 219.615 212.115 221.76 210.344 223.281C208.573 224.781 206.385 225.531 203.781 225.531C202.594 225.531 201.375 225.375 200.125 225.062C198.875 224.75 197.74 224.167 196.719 223.312C195.719 222.458 194.896 221.281 194.25 219.781C193.604 218.26 193.281 216.292 193.281 213.875V195.656C192.344 195.594 191.396 195.531 190.438 195.469C189.5 195.406 188.552 195.333 187.594 195.25C187.177 195.188 186.823 195 186.531 194.688C186.26 194.375 186.125 194.01 186.125 193.594C186.125 193.115 186.302 192.729 186.656 192.438C187.031 192.146 187.406 192 187.781 192H187.906C188.823 192.062 189.719 192.125 190.594 192.188C191.49 192.25 192.385 192.312 193.281 192.375V181.75C193.281 181.396 193.396 181.073 193.625 180.781C193.854 180.469 194.146 180.26 194.5 180.156L202.312 178.062C202.375 178.021 202.448 178 202.531 178C202.615 177.979 202.688 177.969 202.75 177.969C203.229 177.969 203.615 178.146 203.906 178.5C204.219 178.854 204.375 179.24 204.375 179.656V192.438C205.646 192.396 206.927 192.344 208.219 192.281C209.531 192.198 210.844 192.104 212.156 192H212.281C212.74 192 213.125 192.167 213.438 192.5C213.75 192.812 213.906 193.177 213.906 193.594Z" fill="black"/>
<path d="M155.164 108.491C153.57 105.98 141.888 87.7826 131.904 78.1571C123.574 70.159 111.106 69.9275 109.693 69.9275C109.564 69.9282 109.435 69.9329 109.308 69.943H106.286C104.95 69.943 92.9853 70.1705 84.2341 78.048C73.4368 87.7785 61.4899 107.404 60.654 108.788C54.3251 118.794 50.4463 125.302 50.4463 132.537C50.4463 145.575 59.9991 154 74.7829 154H141.222C156.002 154 165.552 145.567 165.552 132.516C165.552 125.216 161.664 118.718 155.318 108.721C155.268 108.643 155.217 108.565 155.164 108.491ZM141.222 143.904H74.7829C69.4644 143.904 60.5422 142.427 60.5422 132.537C60.5422 128.311 63.3193 123.458 69.2147 114.14C69.2342 114.109 69.2537 114.077 69.2732 114.046C69.391 113.85 81.14 94.4284 90.991 85.5507C96.9981 80.1433 106.2 80.0403 106.29 80.0396H109.709C109.805 80.0396 109.9 80.0369 109.996 80.0315C111.639 80.0935 119.916 80.642 124.905 85.4322C134.519 94.7017 146.662 113.934 146.783 114.128C146.838 114.214 146.894 114.299 146.954 114.381C153.224 124.273 155.457 128.527 155.457 132.514C155.456 141.928 147.715 143.904 141.222 143.904Z" fill="black"/>
<path d="M83.6323 57.7025C95.0266 57.7025 103.951 45.0281 103.951 28.8482C103.952 12.6718 95.0266 0 83.6323 0C72.2393 0 63.3145 12.6718 63.3145 28.8482C63.3145 45.0287 72.2393 57.7025 83.6323 57.7025ZM83.6323 10.096C88.4676 10.096 93.8555 17.7972 93.8555 28.8482C93.8555 39.9027 88.4669 47.6066 83.6323 47.6066C78.7977 47.6066 73.4098 39.9027 73.4098 28.8482C73.4105 17.7972 78.7977 10.096 83.6323 10.096Z" fill="black"/>
<path d="M57.0235 92.4093C59.0097 92.4093 60.907 92.0007 62.686 91.1843C71.5448 87.0652 74.0116 74.1376 68.2993 61.7505C63.8672 52.158 55.6679 45.7134 47.8947 45.7134C45.9064 45.7134 44.0064 46.1233 42.2402 46.9363C33.3692 51.0414 30.8944 63.9716 36.608 76.3803C41.0402 85.9674 49.2442 92.4086 57.0221 92.4093H57.0235ZM45.7752 72.1507C42.3587 64.7308 43.3286 57.5566 46.4705 56.1035C46.9006 55.9056 47.3656 55.8094 47.894 55.8094C51.0641 55.8094 56.0798 59.3753 59.1322 65.9814C62.5487 73.3905 61.5788 80.5654 58.4517 82.0192C58.0196 82.2171 57.5525 82.314 57.0228 82.314C53.8486 82.3133 48.8269 78.7488 45.7752 72.1507Z" fill="black"/>
<path d="M132.358 57.7025C143.748 57.7025 152.671 45.0281 152.671 28.8482C152.671 12.6718 143.748 0 132.358 0C120.957 0 112.026 12.6718 112.026 28.8482C112.026 45.0287 120.957 57.7025 132.358 57.7025ZM132.358 10.096C137.19 10.096 142.575 17.7972 142.575 28.8482C142.575 39.9027 137.19 47.6066 132.358 47.6066C127.517 47.6066 122.122 39.9027 122.122 28.8482C122.122 17.7972 127.517 10.096 132.358 10.096Z" fill="black"/>
<path d="M173.76 46.9375C171.998 46.1217 170.094 45.7078 168.099 45.7078C160.337 45.7078 152.14 52.1544 147.706 61.7449C141.968 74.1266 144.432 87.0589 153.338 91.1955C155.094 92.0012 156.992 92.4097 158.978 92.4097C166.758 92.4097 174.96 85.9672 179.388 76.376C185.106 63.9761 182.633 51.0445 173.76 46.9375ZM170.221 72.1458C167.172 78.7499 162.153 82.3131 158.978 82.3131C158.448 82.3131 157.981 82.2168 157.569 82.0284C154.409 80.5604 153.436 73.3896 156.867 65.9859C159.926 59.3717 164.936 55.8031 168.099 55.8031C168.624 55.8031 169.088 55.8993 169.517 56.0979C172.67 57.5584 173.64 64.732 170.221 72.1458Z" fill="black"/>
</svg>
