<svg width="217" height="54" viewBox="0 0 217 54" fill="none" xmlns="http://www.w3.org/2000/svg">
<path d="M105.008 39.3203C104.602 39.2891 104.195 39.2734 103.789 39.2734C103.383 39.2734 102.977 39.2734 102.57 39.2734C100.32 39.2734 98.1016 39.375 95.9141 39.5781C93.7422 39.7656 91.5859 40.0469 89.4453 40.4219H89.2109C88.8516 40.4219 88.5625 40.2969 88.3438 40.0469C88.125 39.8125 88.0156 39.5391 88.0156 39.2266C88.0156 38.9453 88.1016 38.6875 88.2734 38.4531C88.4609 38.2188 88.7109 38.0781 89.0234 38.0312C89.6016 37.9062 90.1875 37.7969 90.7812 37.7031C91.375 37.6094 91.9922 37.5234 92.6328 37.4453C92.6016 36.9766 92.5469 36.2734 92.4688 35.3359C92.4062 34.3984 92.3125 33.2891 92.1875 32.0078C92.0781 30.7266 91.9375 29.3047 91.7656 27.7422C91.5938 26.1797 91.3906 24.5312 91.1562 22.7969C90.9219 21.0625 90.6484 19.2812 90.3359 17.4531C90.0234 15.6094 89.6641 13.7812 89.2578 11.9688C88.8359 13 88.3672 14.1797 87.8516 15.5078C87.3516 16.8359 86.8281 18.2422 86.2812 19.7266C85.75 21.1953 85.2109 22.7031 84.6641 24.25C84.1172 25.7969 83.5859 27.3047 83.0703 28.7734C82.5703 30.2422 82.0938 31.625 81.6406 32.9219C81.2031 34.2188 80.8203 35.3594 80.4922 36.3438C80.1641 37.3281 79.8984 38.1172 79.6953 38.7109C79.5078 39.2891 79.4141 39.5938 79.4141 39.625C79.3359 39.8906 79.1875 40.0859 78.9688 40.2109C78.75 40.3516 78.5156 40.4219 78.2656 40.4219C78.0312 40.4219 77.8125 40.3672 77.6094 40.2578C77.4062 40.1484 77.2578 40 77.1641 39.8125L65.7969 17.5938C65.4531 20.1875 65.1406 22.6953 64.8594 25.1172C64.7344 26.1484 64.6094 27.2188 64.4844 28.3281C64.375 29.4219 64.2656 30.5 64.1562 31.5625C64.0469 32.6094 63.9531 33.6094 63.875 34.5625C63.8125 35.5156 63.7656 36.3672 63.7344 37.1172C64.4062 37.1484 65.0859 37.2109 65.7734 37.3047C66.4609 37.3828 67.1719 37.5 67.9062 37.6562C68.1875 37.7031 68.4141 37.8438 68.5859 38.0781C68.7734 38.2969 68.8672 38.5547 68.8672 38.8516C68.8672 39.2578 68.7266 39.5625 68.4453 39.7656C68.1641 39.9531 67.9062 40.0469 67.6719 40.0469H67.4141C66.5078 39.875 65.6094 39.75 64.7188 39.6719C63.8438 39.5781 62.9688 39.5312 62.0938 39.5312C61.4219 39.5312 60.7578 39.5547 60.1016 39.6016C59.4609 39.6484 58.8125 39.7344 58.1562 39.8594H57.9688C57.6094 39.8594 57.3125 39.7344 57.0781 39.4844C56.8438 39.2344 56.7266 38.9453 56.7266 38.6172C56.7266 38.3203 56.8203 38.0625 57.0078 37.8438C57.1953 37.6094 57.4375 37.4609 57.7344 37.3984C58.3125 37.3047 58.8906 37.2344 59.4688 37.1875C60.0625 37.1406 60.6484 37.1016 61.2266 37.0703C61.2578 36.2891 61.3203 35.2891 61.4141 34.0703C61.5234 32.8516 61.6484 31.4844 61.7891 29.9688C61.9453 28.4531 62.1328 26.8203 62.3516 25.0703C62.5703 23.3047 62.8203 21.4844 63.1016 19.6094C63.3828 17.7344 63.6953 15.8359 64.0391 13.9141C64.3984 11.9922 64.7891 10.1094 65.2109 8.26562C64.3359 8.23438 63.4688 8.16406 62.6094 8.05469C61.7656 7.92969 60.9219 7.75 60.0781 7.51562C59.8125 7.4375 59.5938 7.28906 59.4219 7.07031C59.25 6.85156 59.1641 6.60938 59.1641 6.34375C59.1641 5.98438 59.2891 5.6875 59.5391 5.45312C59.8047 5.21875 60.0938 5.10156 60.4062 5.10156C60.4688 5.10156 60.5234 5.10156 60.5703 5.10156C60.6172 5.10156 60.6797 5.11719 60.7578 5.14844C61.6016 5.36719 62.4453 5.53906 63.2891 5.66406C64.1328 5.77344 65 5.82812 65.8906 5.82812C66.25 5.82812 66.5547 5.82031 66.8047 5.80469C67.0703 5.78906 67.3281 5.78125 67.5781 5.78125C68.0312 5.78125 68.3984 5.98438 68.6797 6.39062L80.6328 28.375C81.0859 27.0469 81.5547 25.6797 82.0391 24.2734C82.5391 22.8516 83.0391 21.4531 83.5391 20.0781C84.0547 18.6875 84.5547 17.3438 85.0391 16.0469C85.5234 14.75 85.9844 13.5547 86.4219 12.4609C86.875 11.3672 87.2812 10.4062 87.6406 9.57812C88.0156 8.75 88.3359 8.10938 88.6016 7.65625C88.8359 7.26562 89.1875 7.07031 89.6562 7.07031C91.0625 6.94531 92.3594 6.83594 93.5469 6.74219C94.7344 6.64844 95.7891 6.57031 96.7109 6.50781C97.6328 6.42969 98.3984 6.36719 99.0078 6.32031C99.6328 6.27344 100.078 6.23438 100.344 6.20312C100.391 6.20312 100.43 6.19531 100.461 6.17969C100.492 6.16406 100.523 6.15625 100.555 6.15625C100.914 6.15625 101.211 6.28906 101.445 6.55469C101.68 6.80469 101.797 7.08594 101.797 7.39844C101.797 7.71094 101.695 7.98438 101.492 8.21875C101.305 8.4375 101.055 8.57031 100.742 8.61719C100.492 8.66406 100.102 8.72656 99.5703 8.80469C99.0391 8.86719 98.375 8.94531 97.5781 9.03906C97.6719 9.69531 97.8125 10.6172 98 11.8047C98.2031 12.9766 98.4141 14.3281 98.6328 15.8594C98.8672 17.375 99.1094 19.0234 99.3594 20.8047C99.6094 22.5859 99.8516 24.3984 100.086 26.2422C100.32 28.0859 100.523 29.9141 100.695 31.7266C100.883 33.5391 101.023 35.2422 101.117 36.8359H102.57C102.977 36.8359 103.391 36.8359 103.812 36.8359C104.234 36.8359 104.648 36.8516 105.055 36.8828C105.398 36.8828 105.68 37 105.898 37.2344C106.133 37.4531 106.25 37.7344 106.25 38.0781C106.25 38.4375 106.125 38.7344 105.875 38.9688C105.641 39.2031 105.352 39.3203 105.008 39.3203ZM134.961 16.375C134.961 16.6875 134.852 16.9609 134.633 17.1953C134.43 17.4297 134.172 17.5625 133.859 17.5938C133.562 17.6406 133.266 17.6797 132.969 17.7109C132.688 17.7266 132.391 17.75 132.078 17.7812C131.969 18.2188 131.812 18.8359 131.609 19.6328C131.422 20.4141 131.195 21.3125 130.93 22.3281C130.664 23.3438 130.375 24.4453 130.062 25.6328C129.766 26.8203 129.453 28.0312 129.125 29.2656C128.797 30.5 128.461 31.7266 128.117 32.9453C127.773 34.1641 127.438 35.3203 127.109 36.4141C126.797 37.4922 126.492 38.4766 126.195 39.3672C125.914 40.2422 125.656 40.9688 125.422 41.5469C124.781 43.0781 124.016 44.5703 123.125 46.0234C122.25 47.4922 121.234 48.7969 120.078 49.9375C118.938 51.0781 117.656 51.9922 116.234 52.6797C114.812 53.3828 113.25 53.7344 111.547 53.7344C110.484 53.7344 109.461 53.5859 108.477 53.2891C107.492 53.0078 106.625 52.5781 105.875 52C105.125 51.4219 104.523 50.7109 104.07 49.8672C103.617 49.0391 103.391 48.0703 103.391 46.9609C103.391 46.2578 103.492 45.5547 103.695 44.8516C103.883 44.1641 104.172 43.5469 104.562 43C104.938 42.4688 105.406 42.0312 105.969 41.6875C106.531 41.3594 107.188 41.1953 107.938 41.1953C108.516 41.1953 109.055 41.3047 109.555 41.5234C110.07 41.7422 110.516 42.0391 110.891 42.4141C111.266 42.7891 111.562 43.2266 111.781 43.7266C112 44.2422 112.109 44.7891 112.109 45.3672C112.109 45.9453 112 46.4844 111.781 46.9844C111.562 47.5 111.266 47.9453 110.891 48.3203C110.516 48.7109 110.07 49.0156 109.555 49.2344C109.055 49.4531 108.516 49.5625 107.938 49.5625C107.672 49.5625 107.422 49.5391 107.188 49.4922C106.953 49.4453 106.727 49.3828 106.508 49.3047C106.867 49.7578 107.281 50.1172 107.75 50.3828C108.219 50.6641 108.727 50.8047 109.273 50.8047C109.961 50.8047 110.617 50.5938 111.242 50.1719C111.867 49.7656 112.453 49.2344 113 48.5781C113.562 47.9219 114.078 47.1875 114.547 46.375C115.016 45.5625 115.438 44.75 115.812 43.9375C116.203 43.125 116.539 42.3594 116.82 41.6406C117.102 40.9219 117.328 40.3281 117.5 39.8594C117.625 39.5156 117.742 39.1562 117.852 38.7812C117.977 38.3906 118.109 37.9844 118.25 37.5625C116.531 35.2188 115.156 33.0312 114.125 31C113.094 28.9688 112.289 27.1328 111.711 25.4922C111.148 23.8516 110.766 22.4297 110.562 21.2266C110.375 20.0078 110.266 19.0469 110.234 18.3438C109.641 18.3438 109.039 18.3359 108.43 18.3203C107.836 18.2891 107.242 18.2344 106.648 18.1562C106.336 18.125 106.07 18 105.852 17.7812C105.648 17.5469 105.547 17.2734 105.547 16.9609C105.547 16.6172 105.672 16.3281 105.922 16.0938C106.188 15.8438 106.477 15.7188 106.789 15.7188H106.93C107.477 15.7969 108.031 15.8516 108.594 15.8828C109.172 15.8984 109.758 15.9062 110.352 15.9062C111.258 15.9062 112.172 15.875 113.094 15.8125C114.031 15.7344 114.984 15.6172 115.953 15.4609C116.016 15.4297 116.078 15.4141 116.141 15.4141C116.5 15.4141 116.797 15.5469 117.031 15.8125C117.281 16.0781 117.406 16.3672 117.406 16.6797C117.406 16.9609 117.305 17.2188 117.102 17.4531C116.914 17.6875 116.664 17.8281 116.352 17.875C115.711 17.9688 115.086 18.0547 114.477 18.1328C113.883 18.1953 113.289 18.25 112.695 18.2969C112.711 18.8594 112.797 19.6484 112.953 20.6641C113.125 21.6797 113.438 22.8828 113.891 24.2734C114.359 25.6641 115.008 27.2266 115.836 28.9609C116.68 30.6953 117.789 32.5703 119.164 34.5859C119.602 33.0859 120.039 31.5156 120.477 29.875C120.93 28.2188 121.352 26.625 121.742 25.0938C122.148 23.5625 122.508 22.1562 122.82 20.875C123.148 19.5938 123.406 18.5625 123.594 17.7812C123.281 17.75 122.953 17.7266 122.609 17.7109C122.281 17.6797 121.953 17.6406 121.625 17.5938C121.312 17.5625 121.047 17.4297 120.828 17.1953C120.625 16.9609 120.523 16.6875 120.523 16.375C120.523 16 120.656 15.7031 120.922 15.4844C121.188 15.25 121.469 15.1328 121.766 15.1328H121.906C122.875 15.2578 123.836 15.3438 124.789 15.3906C125.758 15.4375 126.734 15.4609 127.719 15.4609C128.688 15.4609 129.656 15.4375 130.625 15.3906C131.609 15.3438 132.594 15.2578 133.578 15.1328H133.719C134.078 15.1328 134.375 15.2656 134.609 15.5312C134.844 15.7812 134.961 16.0625 134.961 16.375ZM165.312 18.0625C165.312 16.7969 165.117 15.6797 164.727 14.7109C164.352 13.7266 163.836 12.875 163.18 12.1562C162.539 11.4219 161.773 10.8047 160.883 10.3047C160.008 9.78906 159.07 9.375 158.07 9.0625C157.07 8.73438 156.031 8.49219 154.953 8.33594C153.875 8.17969 152.82 8.07812 151.789 8.03125H150.148L149.633 27.8125C150.117 27.9375 150.641 28.0312 151.203 28.0938C151.766 28.1562 152.359 28.1875 152.984 28.1875C154.625 28.1875 156.188 27.9766 157.672 27.5547C159.172 27.1172 160.484 26.4766 161.609 25.6328C162.75 24.7891 163.648 23.7344 164.305 22.4688C164.977 21.2031 165.312 19.7344 165.312 18.0625ZM152.984 30.6484C152.359 30.6484 151.758 30.625 151.18 30.5781C150.617 30.5156 150.086 30.4219 149.586 30.2969L149.398 37.7031C149.992 37.75 150.594 37.7969 151.203 37.8438C151.828 37.8906 152.453 37.9375 153.078 37.9844C153.391 38.0312 153.648 38.1719 153.852 38.4062C154.07 38.6406 154.18 38.9141 154.18 39.2266C154.18 39.5859 154.047 39.875 153.781 40.0938C153.516 40.3125 153.234 40.4219 152.938 40.4219H152.844C151.594 40.2969 150.344 40.2031 149.094 40.1406C147.859 40.0781 146.617 40.0469 145.367 40.0469C144.133 40.0469 142.906 40.0781 141.688 40.1406C140.484 40.2031 139.273 40.2969 138.055 40.4219H137.961C137.617 40.4219 137.32 40.2969 137.07 40.0469C136.836 39.8125 136.719 39.5391 136.719 39.2266C136.719 38.9141 136.82 38.6406 137.023 38.4062C137.242 38.1719 137.508 38.0312 137.82 37.9844C138.398 37.9375 138.977 37.8906 139.555 37.8438C140.148 37.7969 140.734 37.75 141.312 37.7031L141.852 8.61719C140.695 8.80469 139.836 8.99219 139.273 9.17969C138.727 9.36719 138.438 9.46094 138.406 9.46094C138.219 9.53906 138.07 9.57812 137.961 9.57812C137.617 9.57812 137.32 9.44531 137.07 9.17969C136.836 8.91406 136.719 8.625 136.719 8.3125C136.719 8.07812 136.781 7.85156 136.906 7.63281C137.047 7.41406 137.242 7.25781 137.492 7.16406C137.539 7.14844 137.828 7.0625 138.359 6.90625C138.891 6.73438 139.656 6.54688 140.656 6.34375C141.672 6.14062 142.93 5.96094 144.43 5.80469C145.93 5.63281 147.68 5.54688 149.68 5.54688C150.023 5.54688 150.375 5.54688 150.734 5.54688C151.109 5.54688 151.477 5.5625 151.836 5.59375C153.195 5.64062 154.531 5.77344 155.844 5.99219C157.156 6.21094 158.406 6.54688 159.594 7C160.781 7.4375 161.867 7.98438 162.852 8.64062C163.852 9.29688 164.719 10.0859 165.453 11.0078C166.188 11.9141 166.758 12.9531 167.164 14.125C167.57 15.2969 167.773 16.6094 167.773 18.0625C167.773 19.4375 167.57 20.7031 167.164 21.8594C166.758 23 166.195 24.0391 165.477 24.9766C164.773 25.8984 163.945 26.7188 162.992 27.4375C162.039 28.1406 161.008 28.7344 159.898 29.2188C158.805 29.6875 157.664 30.0469 156.477 30.2969C155.305 30.5312 154.141 30.6484 152.984 30.6484ZM191.586 27.625V27.2266C191.586 26.0547 191.461 24.9688 191.211 23.9688C190.961 22.9688 190.562 22.0859 190.016 21.3203C189.484 20.5391 188.797 19.8984 187.953 19.3984C187.109 18.8984 186.094 18.5625 184.906 18.3906C184.078 18.4844 183.359 18.7109 182.75 19.0703C182.141 19.4297 181.617 19.875 181.18 20.4062C180.758 20.9219 180.406 21.5078 180.125 22.1641C179.844 22.8203 179.617 23.5 179.445 24.2031C179.289 24.8906 179.172 25.5859 179.094 26.2891C179.016 26.9766 178.969 27.625 178.953 28.2344C179.203 28.3125 179.516 28.3984 179.891 28.4922C180.281 28.5859 180.719 28.6797 181.203 28.7734C181.688 28.8516 182.211 28.9219 182.773 28.9844C183.352 29.0312 183.953 29.0547 184.578 29.0547C185.906 29.0547 187.148 28.9297 188.305 28.6797C189.477 28.4297 190.57 28.0781 191.586 27.625ZM193.977 28.5391C193.93 28.9453 193.711 29.2969 193.32 29.5938C192.93 29.8906 192.438 30.1562 191.844 30.3906C191.25 30.6094 190.594 30.7969 189.875 30.9531C189.172 31.0938 188.477 31.2109 187.789 31.3047C187.102 31.3984 186.469 31.4688 185.891 31.5156C185.312 31.5469 184.859 31.5625 184.531 31.5625C183.391 31.5625 182.336 31.4844 181.367 31.3281C180.414 31.1719 179.625 31.0078 179 30.8359C179.094 31.8047 179.273 32.7578 179.539 33.6953C179.805 34.6328 180.188 35.4766 180.688 36.2266C181.188 36.9609 181.812 37.5625 182.562 38.0312C183.312 38.4844 184.219 38.7109 185.281 38.7109C185.672 38.7109 186.117 38.6641 186.617 38.5703C187.117 38.4609 187.609 38.3125 188.094 38.125C188.578 37.9219 189.023 37.6875 189.43 37.4219C189.836 37.1406 190.156 36.8281 190.391 36.4844C190.656 36.1719 190.977 36.0156 191.352 36.0156C191.68 36.0156 191.969 36.1484 192.219 36.4141C192.469 36.6641 192.594 36.9453 192.594 37.2578C192.594 37.5859 192.492 37.8438 192.289 38.0312C191.914 38.6094 191.391 39.1016 190.719 39.5078C190.047 39.9141 189.32 40.2422 188.539 40.4922C187.758 40.7578 186.969 40.9453 186.172 41.0547C185.375 41.1797 184.648 41.2422 183.992 41.2422C182.117 41.2422 180.375 40.9062 178.766 40.2344C177.156 39.5781 175.758 38.6719 174.57 37.5156C173.383 36.3594 172.445 35 171.758 33.4375C171.086 31.875 170.75 30.1875 170.75 28.375C170.75 26.3906 171.047 24.625 171.641 23.0781C172.234 21.5156 173.078 20.2031 174.172 19.1406C175.266 18.0625 176.594 17.25 178.156 16.7031C179.719 16.1406 181.477 15.8594 183.43 15.8594C185.273 15.9375 186.859 16.25 188.188 16.7969C189.531 17.3438 190.633 18.1016 191.492 19.0703C192.352 20.0391 192.984 21.2109 193.391 22.5859C193.812 23.9453 194.023 25.4766 194.023 27.1797C194.023 27.5703 194.016 27.8828 194 28.1172C193.984 28.3359 193.977 28.4766 193.977 28.5391ZM216.43 17.1953C216.43 17.5078 216.32 17.7891 216.102 18.0391C215.898 18.2734 215.641 18.4062 215.328 18.4375C214.312 18.5156 213.305 18.5859 212.305 18.6484C211.305 18.7109 210.297 18.7578 209.281 18.7891V35.1953C209.281 35.5078 209.344 35.7969 209.469 36.0625C209.609 36.3281 209.781 36.5547 209.984 36.7422C210.203 36.9297 210.445 37.0781 210.711 37.1875C210.977 37.2969 211.25 37.3516 211.531 37.3516C211.953 37.3516 212.297 37.2422 212.562 37.0234C212.844 36.7891 213.078 36.5078 213.266 36.1797C213.453 35.8359 213.602 35.4766 213.711 35.1016C213.836 34.7266 213.938 34.3906 214.016 34.0938C214.062 33.8125 214.203 33.5859 214.438 33.4141C214.672 33.2266 214.93 33.1328 215.211 33.1328C215.57 33.1328 215.859 33.2734 216.078 33.5547C216.312 33.8203 216.43 34.0938 216.43 34.375V34.6328C215.977 36.7109 215.086 38.3203 213.758 39.4609C212.43 40.5859 210.789 41.1484 208.836 41.1484C207.945 41.1484 207.031 41.0312 206.094 40.7969C205.156 40.5625 204.305 40.125 203.539 39.4844C202.789 38.8438 202.172 37.9609 201.688 36.8359C201.203 35.6953 200.961 34.2188 200.961 32.4062V18.7422C200.258 18.6953 199.547 18.6484 198.828 18.6016C198.125 18.5547 197.414 18.5 196.695 18.4375C196.383 18.3906 196.117 18.25 195.898 18.0156C195.695 17.7812 195.594 17.5078 195.594 17.1953C195.594 16.8359 195.727 16.5469 195.992 16.3281C196.273 16.1094 196.555 16 196.836 16H196.93C197.617 16.0469 198.289 16.0938 198.945 16.1406C199.617 16.1875 200.289 16.2344 200.961 16.2812V8.3125C200.961 8.04688 201.047 7.80469 201.219 7.58594C201.391 7.35156 201.609 7.19531 201.875 7.11719L207.734 5.54688C207.781 5.51563 207.836 5.5 207.898 5.5C207.961 5.48437 208.016 5.47656 208.062 5.47656C208.422 5.47656 208.711 5.60938 208.93 5.875C209.164 6.14062 209.281 6.42969 209.281 6.74219V16.3281C210.234 16.2969 211.195 16.2578 212.164 16.2109C213.148 16.1484 214.133 16.0781 215.117 16H215.211C215.555 16 215.844 16.125 216.078 16.375C216.312 16.6094 216.43 16.8828 216.43 17.1953Z" fill="white"/>
<path d="M37.0878 32.4063C36.6118 31.6562 33.1224 26.2208 30.1401 23.3456C27.652 20.9566 23.9278 20.8874 23.5056 20.8874C23.4672 20.8876 23.4286 20.889 23.3908 20.892H22.4879C22.0891 20.892 18.5151 20.96 15.9011 23.313C12.6759 26.2195 9.10735 32.0818 8.85765 32.495C6.96722 35.4839 5.80859 37.4278 5.80859 39.5891C5.80859 43.4835 8.66203 46 13.078 46H32.9234C37.3381 46 40.1908 43.4811 40.1908 39.5826C40.1908 37.4023 39.0293 35.4612 37.1339 32.4751C37.119 32.4518 37.1037 32.4286 37.0878 32.4063ZM32.9234 42.9843H13.078C11.4893 42.9843 8.82427 42.5432 8.82427 39.5891C8.82427 38.3267 9.65379 36.8772 11.4147 34.0937C11.4206 34.0844 11.4264 34.075 11.4322 34.0655C11.4674 34.0072 14.9769 28.2059 17.9194 25.5541C19.7137 23.9389 22.4624 23.9081 22.4891 23.9079H23.5104C23.5392 23.9079 23.5675 23.9071 23.5961 23.9055C24.0868 23.924 26.5593 24.0879 28.0496 25.5187C30.9212 28.2875 34.5482 34.0324 34.5846 34.0901C34.6009 34.116 34.6178 34.1411 34.6355 34.1657C36.5084 37.1206 37.1753 38.3912 37.1753 39.5822C37.1751 42.3941 34.8629 42.9843 32.9234 42.9843Z" fill="white"/>
<path d="M15.7213 17.2358C19.1248 17.2358 21.7907 13.4499 21.7907 8.61701C21.7909 3.78508 19.1248 0 15.7213 0C12.3182 0 9.65234 3.78508 9.65234 8.61701C9.65234 13.4501 12.3182 17.2358 15.7213 17.2358ZM15.7213 3.01568C17.1656 3.01568 18.775 5.31604 18.775 8.61701C18.775 11.919 17.1654 14.2201 15.7213 14.2201C14.2772 14.2201 12.6678 11.919 12.6678 8.61701C12.668 5.31604 14.2772 3.01568 15.7213 3.01568Z" fill="white"/>
<path d="M7.77322 27.6027C8.3665 27.6027 8.93325 27.4807 9.46461 27.2368C12.1108 26.0064 12.8476 22.145 11.1413 18.4449C9.81745 15.5796 7.36831 13.6546 5.04643 13.6546C4.45255 13.6546 3.88499 13.777 3.35745 14.0199C0.707671 15.2461 -0.0315734 19.1084 1.6751 22.8148C2.99899 25.6785 5.44953 27.6025 7.77281 27.6027H7.77322ZM4.41334 21.5515C3.39283 19.3351 3.68254 17.1922 4.62102 16.7581C4.74949 16.699 4.88841 16.6703 5.04623 16.6703C5.99316 16.6703 7.49135 17.7354 8.40309 19.7087C9.4236 21.9218 9.13389 24.0649 8.19983 24.4992C8.07076 24.5583 7.93124 24.5873 7.77301 24.5873C6.82488 24.5871 5.32488 23.5223 4.41334 21.5515Z" fill="white"/>
<path d="M30.2756 17.2358C33.6779 17.2358 36.3432 13.4499 36.3432 8.61701C36.3432 3.78508 33.6779 0 30.2756 0C26.8701 0 24.2026 3.78508 24.2026 8.61701C24.2026 13.4501 26.8701 17.2358 30.2756 17.2358ZM30.2756 3.01568C31.7191 3.01568 33.3275 5.31604 33.3275 8.61701C33.3275 11.919 31.7191 14.2201 30.2756 14.2201C28.8297 14.2201 27.2183 11.919 27.2183 8.61701C27.2183 5.31604 28.8297 3.01568 30.2756 3.01568Z" fill="white"/>
<path d="M42.6426 14.0203C42.1164 13.7767 41.5475 13.653 40.9516 13.653C38.6331 13.653 36.1848 15.5786 34.8601 18.4433C33.1462 22.1418 33.8824 26.0046 36.5424 27.2403C37.067 27.4809 37.6339 27.603 38.2272 27.603C40.5511 27.603 43.001 25.6785 44.3237 22.8137C46.0318 19.1098 45.2929 15.2471 42.6426 14.0203ZM41.5855 21.5501C40.6747 23.5227 39.1755 24.5871 38.2272 24.5871C38.0688 24.5871 37.9292 24.5583 37.8064 24.502C36.8623 24.0635 36.5718 21.9216 37.5967 19.7101C38.5103 17.7344 40.0068 16.6685 40.9516 16.6685C41.1086 16.6685 41.2471 16.6972 41.3752 16.7566C42.3169 17.1928 42.6068 19.3356 41.5855 21.5501Z" fill="white"/>
</svg>
